<svg id="icon-mc-plumbing" xmlns="http://www.w3.org/2000/svg" width="54.609" height="76.305" viewBox="0 0 54.609 76.305">
  <g id="Group_962" data-name="Group 962" transform="translate(0 0)">
    <path id="Path_4757" data-name="Path 4757" d="M65.778,2.63c-2.091-3.567-4.3-3.444-6.4,0C49.789,16.9,35.275,38.3,35.275,49a27.305,27.305,0,1,0,54.611,0C89.886,38.176,75.372,16.9,65.778,2.63ZM82.26,61.176a23.355,23.355,0,0,1-8.241,7.995,3.3,3.3,0,0,1-3.2-5.781,16.282,16.282,0,0,0,5.9-5.658,16.034,16.034,0,0,0,2.46-7.872,3.265,3.265,0,1,1,6.519.369A24.367,24.367,0,0,1,82.26,61.176Z" transform="translate(-35.275 0)" fill="#20358c"/>
  </g>
</svg>
