<svg id="icon-mc-heating" xmlns="http://www.w3.org/2000/svg" width="59.672" height="79.564" viewBox="0 0 59.672 79.564">
  <g id="Group_632" data-name="Group 632" transform="translate(0 0)">
    <path id="Path_3103" data-name="Path 3103" d="M123.5,46.583c-.911-11.866-6.436-19.3-11.31-25.864C107.68,14.645,103.782,9.4,103.782,1.66a1.66,1.66,0,0,0-.9-1.475,1.642,1.642,0,0,0-1.722.126A42.156,42.156,0,0,0,85.6,22.8a73.406,73.406,0,0,0-1.7,16.811c-6.76-1.444-8.291-11.555-8.307-11.665a1.657,1.657,0,0,0-2.365-1.258c-.354.172-8.7,4.412-9.186,21.345C64,48.6,64,49.162,64,49.727A29.87,29.87,0,0,0,93.836,79.561a.232.232,0,0,0,.066,0h.021a29.87,29.87,0,0,0,29.749-29.834C123.673,48.9,123.5,46.583,123.5,46.583ZM93.836,76.246c-5.484,0-9.945-4.752-9.945-10.594,0-.2,0-.4.013-.646a13.437,13.437,0,0,1,1.047-5.264c.962,2.065,2.681,3.964,5.473,3.964a1.657,1.657,0,0,0,1.658-1.657,33.158,33.158,0,0,1,.636-7.54,16.029,16.029,0,0,1,3.356-6.355,21.357,21.357,0,0,0,3.417,6.269c1.918,2.726,3.9,5.544,4.249,10.349.021.285.042.571.042.879C103.782,71.494,99.321,76.246,93.836,76.246Z" transform="translate(-64 0)" fill="#20358c"/>
  </g>
</svg>
