<svg xmlns="http://www.w3.org/2000/svg" width="63.703" height="72.805" viewBox="0 0 63.703 72.805">
  <path id="icon-mc-commercial" d="M62,68.254H59.154V3.413A3.413,3.413,0,0,0,55.741,0H7.963A3.413,3.413,0,0,0,4.55,3.413V68.254H1.706A1.706,1.706,0,0,0,0,69.961V72.8H63.7V69.961A1.706,1.706,0,0,0,62,68.254ZM18.2,10.807A1.706,1.706,0,0,1,19.908,9.1H25.6A1.706,1.706,0,0,1,27.3,10.807v5.688A1.706,1.706,0,0,1,25.6,18.2H19.908A1.706,1.706,0,0,1,18.2,16.495Zm0,13.651a1.706,1.706,0,0,1,1.706-1.706H25.6A1.706,1.706,0,0,1,27.3,24.458v5.688A1.706,1.706,0,0,1,25.6,31.852H19.908A1.706,1.706,0,0,1,18.2,30.146ZM25.6,45.5H19.908A1.706,1.706,0,0,1,18.2,43.8V38.109A1.706,1.706,0,0,1,19.908,36.4H25.6A1.706,1.706,0,0,1,27.3,38.109V43.8A1.706,1.706,0,0,1,25.6,45.5ZM36.4,68.254H27.3V56.31A1.706,1.706,0,0,1,29.008,54.6H34.7A1.706,1.706,0,0,1,36.4,56.31ZM45.5,43.8A1.706,1.706,0,0,1,43.8,45.5H38.109A1.706,1.706,0,0,1,36.4,43.8V38.109A1.706,1.706,0,0,1,38.109,36.4H43.8A1.706,1.706,0,0,1,45.5,38.109Zm0-13.651A1.706,1.706,0,0,1,43.8,31.852H38.109A1.706,1.706,0,0,1,36.4,30.146V24.458a1.706,1.706,0,0,1,1.706-1.706H43.8A1.706,1.706,0,0,1,45.5,24.458Zm0-13.651A1.706,1.706,0,0,1,43.8,18.2H38.109A1.706,1.706,0,0,1,36.4,16.495V10.807A1.706,1.706,0,0,1,38.109,9.1H43.8A1.706,1.706,0,0,1,45.5,10.807Z" fill="#20358c"/>
</svg>
