<svg id="icon-mc-iaq" xmlns="http://www.w3.org/2000/svg" width="78.176" height="72.619" viewBox="0 0 78.176 72.619">
  <path id="Path_5510" data-name="Path 5510" d="M189.932,249.368l-5.344-5.3a2.455,2.455,0,0,0-1.313-1.3l-23.725-23.512a11.386,11.386,0,0,0-15.978,0l-30.383,30.114-.023.023a2.4,2.4,0,0,0,.023,3.4,2.459,2.459,0,0,0,3.455,0l2.068-2.049v30.9a7.006,7.006,0,0,0,7.036,6.958h52a7.005,7.005,0,0,0,7.036-6.958V251.111l1.694,1.678a2.445,2.445,0,0,0,1.728.709v0a2.443,2.443,0,0,0,1.728-.709l.023-.023A2.4,2.4,0,0,0,189.932,249.368Zm-59.963,15.068H151.06a8.22,8.22,0,1,1-5.146,14.63l-.016-.013a1.345,1.345,0,0,1,1.7-2.083,5.531,5.531,0,1,0,3.462-9.845H129.968a1.345,1.345,0,0,1,0-2.689Zm-1.345-9.412a1.344,1.344,0,0,1,1.345-1.345h1.814a1.345,1.345,0,0,1,0,2.689h-1.814A1.345,1.345,0,0,1,128.624,255.024Zm41.688-7.2a6.9,6.9,0,0,0-9.7-1.055l-.016.013a1.345,1.345,0,0,1-1.668-2.11,9.626,9.626,0,0,1,6-2.111v0a9.587,9.587,0,1,1,0,19.173H139.65a1.345,1.345,0,1,1,0-2.689h25.283a6.9,6.9,0,0,0,5.379-11.218Zm-18.875,8.541H137.074a1.345,1.345,0,0,1,0-2.689h14.363a1.345,1.345,0,1,1,0,2.689Zm-6.588,16.108h-8.068a1.345,1.345,0,1,1,0-2.689h8.068a1.345,1.345,0,0,1,0,2.689Z" transform="translate(-112.473 -215.985)" fill="#20358c"/>
</svg>
