<svg id="_002-piggy-bank-1" data-name="002-piggy-bank-1" xmlns="http://www.w3.org/2000/svg" width="53.203" height="53.203" viewBox="0 0 53.203 53.203">
  <g id="Group_756" data-name="Group 756" transform="translate(0 12.573)">
    <g id="Group_755" data-name="Group 755">
      <path id="Path_3699" data-name="Path 3699" d="M1.827,132.179a1.559,1.559,0,0,1,2.2,2.2,3.1,3.1,0,0,0-.913,2.2A3.212,3.212,0,0,0,6.339,139.7h.072c0-.017,0-.033,0-.05a17.157,17.157,0,0,1,12.481-14.7,9.314,9.314,0,0,0,18.59-.539A10.88,10.88,0,0,1,45.306,121a1.559,1.559,0,0,1,1.537,1.814l-1.183,7.092a16.854,16.854,0,0,1,3.7,6.775,4.778,4.778,0,0,1,3.841,4.582v3.117a4.771,4.771,0,0,1-4.78,4.676,1.652,1.652,0,0,1-.213-.014l-.093,0a17.23,17.23,0,0,1-4.37,5.445v5.581a1.558,1.558,0,0,1-1.559,1.559H35.954a1.558,1.558,0,0,1-1.559-1.559v-1.818c-.521.047-1.036.156-1.559.156H25.043v1.663a1.558,1.558,0,0,1-1.559,1.559H17.25a1.558,1.558,0,0,1-1.559-1.559V156.54a17.128,17.128,0,0,1-9.247-13.718H6.339A6.331,6.331,0,0,1,0,136.587,6.192,6.192,0,0,1,1.827,132.179ZM42.189,139.7a1.559,1.559,0,1,0-1.559-1.559A1.559,1.559,0,0,0,42.189,139.7Zm-18.7,0h9.352a1.559,1.559,0,1,0,0-3.117H23.484a1.559,1.559,0,1,0,0,3.117Z" transform="translate(0 -121)" fill="#fff"/>
    </g>
  </g>
  <g id="Group_758" data-name="Group 758" transform="translate(21.926 9.456)">
    <g id="Group_757" data-name="Group 757" transform="translate(0)">
      <path id="Path_3700" data-name="Path 3700" d="M187.235,91A6.235,6.235,0,1,1,181,97.235,6.241,6.241,0,0,1,187.235,91Z" transform="translate(-181 -91)" fill="#fff"/>
    </g>
  </g>
  <g id="Group_760" data-name="Group 760" transform="translate(9.456)">
    <g id="Group_759" data-name="Group 759">
      <path id="Path_3701" data-name="Path 3701" d="M307.235,0A6.235,6.235,0,1,1,301,6.235,6.241,6.241,0,0,1,307.235,0Z" transform="translate(-301)" fill="#fff"/>
    </g>
  </g>
</svg>
