<svg xmlns="http://www.w3.org/2000/svg" width="29.732" height="17.846" viewBox="0 0 29.732 17.846">
  <path id="Icon_awesome-handshake" data-name="Icon awesome-handshake" d="M20.195,4.5H16.2a1.486,1.486,0,0,0-1,.39L10.634,9.071s-.009.014-.014.019a1.848,1.848,0,0,0-.1,2.6,1.938,1.938,0,0,0,2.606.125s.014,0,.019-.009l3.712-3.4a.743.743,0,1,1,1,1.1l-1.213,1.11L23.414,16.1a3.347,3.347,0,0,1,.367.358V7.473L21.244,4.937a1.476,1.476,0,0,0-1.05-.437Zm5.078,2.982v10.4a1.485,1.485,0,0,0,1.487,1.487h2.973V7.482Zm2.23,10.4a.743.743,0,1,1,.743-.743A.745.745,0,0,1,27.5,17.884ZM0,19.366H2.973A1.485,1.485,0,0,0,4.46,17.879V7.482H0ZM2.23,16.4a.743.743,0,1,1-.743.743A.745.745,0,0,1,2.23,16.4Zm20.25.864-6.936-5.631-1.394,1.278A3.344,3.344,0,0,1,9.63,7.98l3.8-3.48H9.537a1.484,1.484,0,0,0-1.05.437L5.946,7.473v10.4H6.8l4.2,3.8a2.973,2.973,0,0,0,4.181-.432l.009-.009.832.72a1.726,1.726,0,0,0,2.43-.251l1.459-1.793.251.2a1.484,1.484,0,0,0,2.091-.218l.441-.544a1.489,1.489,0,0,0-.214-2.1Z" transform="translate(0 -4.5)" fill="#f26532"/>
</svg>
