<svg xmlns="http://www.w3.org/2000/svg" width="29.793" height="15.492" viewBox="0 0 29.793 15.492">
  <path id="Icon_map-finance" data-name="Icon map-finance" d="M25.622,8.64H0V24.132H29.793V8.64ZM28.6,20.123a3.992,3.992,0,0,0-2.818,2.818H4.009a3.994,3.994,0,0,0-2.818-2.818V12.649A3.994,3.994,0,0,0,4.009,9.832H25.8a4.175,4.175,0,0,0,2.8,2.8v7.487ZM16.157,17.611c-.137-.083-.069-.16-.665-.231v1.726l.327-.061a.868.868,0,0,0,.664-.865A.638.638,0,0,0,16.157,17.611Zm-2.682-2.817a.64.64,0,0,0,.362.6,2.41,2.41,0,0,0,.463.172V13.929a1.426,1.426,0,0,0-.458.188A.77.77,0,0,0,13.475,14.794ZM14.9,10.428c-2.962,0-5.363,2.668-5.363,5.959s2.4,5.959,5.363,5.959,5.363-2.669,5.363-5.959S17.858,10.428,14.9,10.428Zm2.3,9.327a3.534,3.534,0,0,1-1.7.637v.761H14.3v-.775a3.065,3.065,0,0,1-1.542-.5,2.217,2.217,0,0,1-.841-1.707H13.4c.048,0,.142.477.283.646s.353.194.618.267V17.058a4.755,4.755,0,0,1-1.511-.542,1.812,1.812,0,0,1-.751-1.609,2.135,2.135,0,0,1,.735-1.659,2.724,2.724,0,0,1,1.527-.623V11.619h1.192v1.037a2.925,2.925,0,0,1,1.37.641,1.95,1.95,0,0,1,.98,1.9H16.35a1.113,1.113,0,0,0-.7-1.042,1.214,1.214,0,0,1-.159-.123V15.9l.537.1a3.9,3.9,0,0,1,1.385.539,1.788,1.788,0,0,1,.615,1.518,2.18,2.18,0,0,1-.837,1.692Z" transform="translate(0 -8.64)" fill="#f26532"/>
</svg>
