<svg id="_013-fix" data-name="013-fix" xmlns="http://www.w3.org/2000/svg" width="54.443" height="54.443" viewBox="0 0 54.443 54.443">
  <g id="Group_494" data-name="Group 494" transform="translate(0 0)">
    <g id="Group_493" data-name="Group 493" transform="translate(0 0)">
      <path id="Path_2563" data-name="Path 2563" d="M16.329,9.562l1.128-1.128a1.6,1.6,0,0,0-.307-2.5L8.606.813A5.681,5.681,0,0,0,.812,8.607l5.126,8.542a1.6,1.6,0,0,0,2.5.307l1.129-1.128,8.629,8.616,6.759-6.759Z" transform="translate(-0.001 -0.002)" fill="#fff"/>
    </g>
  </g>
  <g id="Group_496" data-name="Group 496" transform="translate(0 0)">
    <g id="Group_495" data-name="Group 495" transform="translate(0)">
      <path id="Path_2564" data-name="Path 2564" d="M53.357,6.352a1.6,1.6,0,0,0-2.567-.441l-4.126,4.126a1.629,1.629,0,0,1-2.255,0,1.6,1.6,0,0,1,0-2.255l4.126-4.126a1.6,1.6,0,0,0-.441-2.567A11.17,11.17,0,0,0,32.76,14.915L14.915,32.76A11.17,11.17,0,0,0,1.088,48.093a1.6,1.6,0,0,0,2.567.441l4.126-4.126a1.595,1.595,0,0,1,2.255,2.255L5.91,50.789a1.6,1.6,0,0,0,.441,2.567A11.169,11.169,0,0,0,21.683,39.529L39.528,21.685A11.17,11.17,0,0,0,53.357,6.352Z" transform="translate(-0.001 0)" fill="#fff"/>
    </g>
  </g>
  <g id="Group_498" data-name="Group 498" transform="translate(28.338 28.482)">
    <g id="Group_497" data-name="Group 497">
      <path id="Path_2565" data-name="Path 2565" d="M290.251,280.328c-5.414-5.395-8.383-7.538-14.73-12.474l-9.02,9.021c4.462,5.727,7.163,9.421,12.23,14.49a8.469,8.469,0,0,0,6.026,2.43,7.56,7.56,0,0,0,4.48-1.326,7.981,7.981,0,0,0,1.014-12.142Zm-4.594,6.545a1.624,1.624,0,0,1-2.232-.084l-6.317-6.317a1.624,1.624,0,0,1-.084-2.232,1.6,1.6,0,0,1,2.308-.055l6.38,6.38A1.6,1.6,0,0,1,285.657,286.873Z" transform="translate(-266.501 -267.854)" fill="#fff"/>
    </g>
  </g>
</svg>
