<svg xmlns="http://www.w3.org/2000/svg" width="37.77" height="37.767" viewBox="0 0 37.77 37.767">
  <g id="icon-phone" transform="translate(-9.535 -0.539)">
    <g id="_003---Call" data-name="003---Call" transform="translate(9.535 0.539)">
      <path id="Shape" d="M16.638,22.149a15.243,15.243,0,0,1-4.6-8.654,1.3,1.3,0,0,1,.372-1.084L15.324,9.5a1.3,1.3,0,0,0,.184-1.612L10.863.672A1.3,1.3,0,0,0,9.176.2L1.72,3.709A1.3,1.3,0,0,0,1,5c.391,3.712,2.009,12.836,10.975,21.8s18.089,10.585,21.8,10.975a1.3,1.3,0,0,0,1.294-.716l3.512-7.456a1.3,1.3,0,0,0-.472-1.685L30.9,23.28a1.3,1.3,0,0,0-1.612.182L26.375,26.38a1.3,1.3,0,0,1-1.084.372A15.243,15.243,0,0,1,16.638,22.149Z" transform="translate(-0.997 -0.021)" fill="#20358c"/>
      <path id="Shape-2" data-name="Shape" d="M40.372,23.674a1.3,1.3,0,0,1-1.3-1.3A9.778,9.778,0,0,0,29.3,12.6a1.3,1.3,0,0,1,0-2.6A12.386,12.386,0,0,1,41.674,22.372,1.3,1.3,0,0,1,40.372,23.674Z" transform="translate(-10.416 -3.488)" fill="#20358c"/>
      <path id="Shape-3" data-name="Shape" d="M46.884,20.186a1.3,1.3,0,0,1-1.3-1.3A16.3,16.3,0,0,0,29.3,2.6a1.3,1.3,0,0,1,0-2.6A18.9,18.9,0,0,1,48.186,18.884a1.3,1.3,0,0,1-1.3,1.3Z" transform="translate(-10.416)" fill="#20358c"/>
    </g>
  </g>
</svg>
