<svg xmlns="http://www.w3.org/2000/svg" width="40.833" height="54.443" viewBox="0 0 40.833 54.443">
  <path id="Icon_awesome-clipboard-check" data-name="Icon awesome-clipboard-check" d="M35.728,6.805H27.222a6.805,6.805,0,0,0-13.611,0H5.1a5.105,5.105,0,0,0-5.1,5.1v37.43a5.105,5.105,0,0,0,5.1,5.1H35.728a5.105,5.105,0,0,0,5.1-5.1V11.909A5.105,5.105,0,0,0,35.728,6.805ZM20.416,4.253a2.552,2.552,0,1,1-2.552,2.552A2.546,2.546,0,0,1,20.416,4.253ZM33.3,28.9,18.1,43.98a1.277,1.277,0,0,1-1.808-.011L7.507,35.112A1.277,1.277,0,0,1,7.518,33.3l3.02-3a1.277,1.277,0,0,1,1.808.011l4.891,4.934L28.508,24.064a1.277,1.277,0,0,1,1.808.011l3,3.02A1.277,1.277,0,0,1,33.3,28.9Z" fill="#fff"/>
</svg>
