<svg id="Shield" xmlns="http://www.w3.org/2000/svg" width="32" height="38" viewBox="0 0 32 38">
  <path id="Path_5514" data-name="Path 5514" d="M37.632,7.794,22.248,1.052a.616.616,0,0,0-.5,0L6.368,7.794A.612.612,0,0,0,6,8.355V19.462A19.092,19.092,0,0,0,16.822,36.591l4.912,2.348a.617.617,0,0,0,.532,0l4.912-2.348A19.093,19.093,0,0,0,38,19.462V8.355A.612.612,0,0,0,37.632,7.794Z" transform="translate(-6 -1)" fill="#fff"/>
  <path id="Path_5515" data-name="Path 5515" d="M36.709,11.086,23.786,5.422a.616.616,0,0,0-.5,0L10.368,11.086a.612.612,0,0,0-.368.561v9.508a16.629,16.629,0,0,0,9.425,14.919l3.847,1.839a.616.616,0,0,0,.532,0l3.847-1.839a16.628,16.628,0,0,0,9.425-14.919V11.646a.612.612,0,0,0-.368-.561Z" transform="translate(-7.539 -2.691)" fill="#1ab7ea"/>
  <path id="Path_5516" data-name="Path 5516" d="M32.266,37.912l3.847-1.839a16.628,16.628,0,0,0,9.425-14.919V11.646a.612.612,0,0,0-.368-.561L32.248,5.422A.615.615,0,0,0,32,5.37v32.6A.618.618,0,0,0,32.266,37.912Z" transform="translate(-16 -2.691)" fill="#20358c"/>
</svg>
