<svg xmlns="http://www.w3.org/2000/svg" width="47.638" height="54.443" viewBox="0 0 47.638 54.443">
  <path id="Icon_awesome-calendar-alt" data-name="Icon awesome-calendar-alt" d="M0,49.339a5.105,5.105,0,0,0,5.1,5.1h37.43a5.105,5.105,0,0,0,5.1-5.1V20.416H0ZM34.027,28.5A1.28,1.28,0,0,1,35.3,27.222h4.253A1.28,1.28,0,0,1,40.833,28.5v4.253a1.28,1.28,0,0,1-1.276,1.276H35.3a1.28,1.28,0,0,1-1.276-1.276Zm0,13.611A1.28,1.28,0,0,1,35.3,40.833h4.253a1.28,1.28,0,0,1,1.276,1.276v4.253a1.28,1.28,0,0,1-1.276,1.276H35.3a1.28,1.28,0,0,1-1.276-1.276ZM20.416,28.5a1.28,1.28,0,0,1,1.276-1.276h4.253A1.28,1.28,0,0,1,27.222,28.5v4.253a1.28,1.28,0,0,1-1.276,1.276H21.692a1.28,1.28,0,0,1-1.276-1.276Zm0,13.611a1.28,1.28,0,0,1,1.276-1.276h4.253a1.28,1.28,0,0,1,1.276,1.276v4.253a1.28,1.28,0,0,1-1.276,1.276H21.692a1.28,1.28,0,0,1-1.276-1.276ZM6.805,28.5a1.28,1.28,0,0,1,1.276-1.276h4.253A1.28,1.28,0,0,1,13.611,28.5v4.253a1.28,1.28,0,0,1-1.276,1.276H8.081a1.28,1.28,0,0,1-1.276-1.276Zm0,13.611a1.28,1.28,0,0,1,1.276-1.276h4.253a1.28,1.28,0,0,1,1.276,1.276v4.253a1.28,1.28,0,0,1-1.276,1.276H8.081a1.28,1.28,0,0,1-1.276-1.276Zm35.728-35.3h-5.1V1.7a1.706,1.706,0,0,0-1.7-1.7h-3.4a1.706,1.706,0,0,0-1.7,1.7v5.1H17.014V1.7a1.706,1.706,0,0,0-1.7-1.7h-3.4a1.706,1.706,0,0,0-1.7,1.7v5.1H5.1a5.105,5.105,0,0,0-5.1,5.1v5.1H47.638v-5.1A5.105,5.105,0,0,0,42.534,6.805Z" fill="#fff"/>
</svg>
