<svg xmlns="http://www.w3.org/2000/svg" width="41.405" height="41.402" viewBox="0 0 41.405 41.402"><g transform="translate(0)"><g data-name="003---Call" transform="translate(0 0)"><path d="M18.143,24.275A16.71,16.71,0,0,1,13.1,14.789a1.419,1.419,0,0,1,.408-1.188l3.2-3.2a1.428,1.428,0,0,0,.2-1.767L11.813.731A1.428,1.428,0,0,0,9.963.21L1.789,4.06A1.42,1.42,0,0,0,1,5.479c.428,4.069,2.2,14.071,12.032,23.9s19.831,11.6,23.9,12.032a1.42,1.42,0,0,0,1.418-.785l3.85-8.174a1.428,1.428,0,0,0-.518-1.847l-7.907-5.09a1.428,1.428,0,0,0-1.767.2l-3.2,3.2a1.419,1.419,0,0,1-1.188.408A16.71,16.71,0,0,1,18.143,24.275Z" transform="translate(-0.997 -0.017)" fill="#fff"/><path data-name="Shape" d="M41.563,24.991a1.428,1.428,0,0,1-1.428-1.428A10.72,10.72,0,0,0,29.428,12.855a1.428,1.428,0,0,1,0-2.855A13.578,13.578,0,0,1,42.991,23.563,1.428,1.428,0,0,1,41.563,24.991Z" transform="translate(-8.724 -2.862)" fill="#fff"/><path data-name="Shape" d="M48.7,22.129A1.428,1.428,0,0,1,47.274,20.7,17.866,17.866,0,0,0,29.428,2.855a1.428,1.428,0,0,1,0-2.855,20.724,20.724,0,0,1,20.7,20.7A1.428,1.428,0,0,1,48.7,22.129Z" transform="translate(-8.724 0)" fill="#fff"/></g></g></svg>