<svg data-name="002-piggy-bank-1" xmlns="http://www.w3.org/2000/svg" width="55.568" height="55.568" viewBox="0 0 55.568 55.568"><g data-name="Group 756" transform="translate(0 13.132)"><g data-name="Group 755"><path data-name="Path 3699" d="M1.908,132.676a1.628,1.628,0,0,1,2.3,2.3,3.234,3.234,0,0,0-.954,2.3,3.355,3.355,0,0,0,3.364,3.256H6.7c0-.018,0-.035,0-.052a17.919,17.919,0,0,1,13.036-15.357,9.728,9.728,0,0,0,19.417-.563A11.363,11.363,0,0,1,47.32,121a1.628,1.628,0,0,1,1.606,1.9L47.69,130.3a17.6,17.6,0,0,1,3.866,7.076,4.991,4.991,0,0,1,4.012,4.785v3.256a4.983,4.983,0,0,1-4.992,4.884,1.721,1.721,0,0,1-.223-.014l-.1,0a18,18,0,0,1-4.564,5.687v5.829a1.627,1.627,0,0,1-1.628,1.628H37.552a1.627,1.627,0,0,1-1.628-1.628v-1.9c-.544.049-1.082.163-1.628.163h-8.14v1.737a1.627,1.627,0,0,1-1.628,1.628H18.016a1.627,1.627,0,0,1-1.628-1.628v-3.689a17.89,17.89,0,0,1-9.658-14.328H6.62A6.612,6.612,0,0,1,0,137.28,6.468,6.468,0,0,1,1.908,132.676Zm42.156,7.86a1.628,1.628,0,1,0-1.628-1.628A1.628,1.628,0,0,0,44.064,140.536Zm-19.536,0H34.3a1.628,1.628,0,0,0,0-3.256H24.528a1.628,1.628,0,0,0,0,3.256Z" transform="translate(0 -121)" fill="#ffffff"/></g></g><g data-name="Group 758" transform="translate(22.9 9.876)"><g data-name="Group 757" transform="translate(0)"><path data-name="Path 3700" d="M187.512,91A6.512,6.512,0,1,1,181,97.512,6.518,6.518,0,0,1,187.512,91Z" transform="translate(-181 -91)" fill="#ffffff"/></g></g><g data-name="Group 760" transform="translate(9.876)"><g data-name="Group 759"><path data-name="Path 3701" d="M307.512,0A6.512,6.512,0,1,1,301,6.512,6.518,6.518,0,0,1,307.512,0Z" transform="translate(-301)" fill="#ffffff"/></g></g></svg>