<svg xmlns="http://www.w3.org/2000/svg" width="92.48" height="94.535" viewBox="0 0 92.48 94.535"><g data-name="003-business" transform="translate(-5.564)"><g data-name="Group 2589" transform="translate(5.565 39.047)"><g data-name="Group 2588"><path data-name="Path 5551" d="M97.856,211.478H5.754a3.053,3.053,0,0,0-.189,1.028,13.348,13.348,0,0,0,23.748,8.377,15.044,15.044,0,0,0,22.492-.142,15.044,15.044,0,0,0,22.492.142,13.348,13.348,0,0,0,23.748-8.377A3.053,3.053,0,0,0,97.856,211.478Z" transform="translate(-5.565 -211.478)" fill="#1a202a"/></g></g><g data-name="Group 2591" transform="translate(54.888)"><g data-name="Group 2590"><path data-name="Path 5552" d="M282.415,0H272.7V32.882h15.2Z" transform="translate(-272.696)" fill="#1a202a"/></g></g><g data-name="Group 2593" transform="translate(70.857)"><g data-name="Group 2592"><path data-name="Path 5553" d="M375.6,5.561a2.891,2.891,0,0,0-.181-.448A9.193,9.193,0,0,0,367.15,0h-7.963l5.48,32.882h19.581Z" transform="translate(-359.187)" fill="#1a202a"/></g></g><g data-name="Group 2595" transform="translate(7.691)"><g data-name="Group 2594"><path data-name="Path 5554" d="M34.18,0a9.193,9.193,0,0,0-8.273,5.114,2.864,2.864,0,0,0-.181.448l-8.645,27.32H36.663L42.143,0Z" transform="translate(-17.082)" fill="#1a202a"/></g></g><g data-name="Group 2597" transform="translate(33.523)"><g data-name="Group 2596"><path data-name="Path 5555" d="M162.464,0l-5.48,32.882h15.2V0Z" transform="translate(-156.984)" fill="#1a202a"/></g></g><g data-name="Group 2599" transform="translate(11.73 56.375)"><g data-name="Group 2598" transform="translate(0)"><path data-name="Path 5556" d="M111.913,308.549a19.415,19.415,0,0,1-10.514-3.075,21.437,21.437,0,0,1-22.367-.149,21.437,21.437,0,0,1-22.367.149,19.43,19.43,0,0,1-17.707,1.684v27.079a9.258,9.258,0,0,0,9.248,9.248h61.653a9.258,9.258,0,0,0,9.248-9.248V307.159A19.4,19.4,0,0,1,111.913,308.549Zm-11.3,28.771a12.331,12.331,0,1,1,4.8-23.686,3.083,3.083,0,1,1-2.421,5.672,6.044,6.044,0,0,0-2.384-.482,6.165,6.165,0,1,0,5.34,9.248h-2.258a3.083,3.083,0,1,1,0-6.165h6.165a3.081,3.081,0,0,1,3.083,3.083A12.347,12.347,0,0,1,100.61,337.321Z" transform="translate(-38.957 -305.326)" fill="#1a202a"/></g></g></g></svg>