<svg xmlns="http://www.w3.org/2000/svg" width="150.118" height="190.998" viewBox="0 0 150.118 190.998"><g data-name="008-pinterest" transform="translate(-33.181)"><g transform="translate(33.181)"><path d="M163.83,19.572C150.683,6.951,132.488,0,112.6,0,82.217,0,63.53,12.454,53.2,22.9,40.478,35.776,33.181,52.872,33.181,69.8c0,21.261,8.893,37.579,23.785,43.65a7.876,7.876,0,0,0,2.992.616,6.655,6.655,0,0,0,6.494-5.353c.5-1.892,1.668-6.559,2.174-8.585,1.084-4,.208-5.926-2.156-8.712-4.307-5.1-6.313-11.123-6.313-18.966,0-23.3,17.347-48.057,49.5-48.057,25.511,0,41.358,14.5,41.358,37.839,0,14.729-3.173,28.369-8.935,38.409-4,6.976-11.045,15.293-21.855,15.293a14.488,14.488,0,0,1-11.523-5.268,13.252,13.252,0,0,1-2.321-11.513c1.137-4.814,2.688-9.835,4.188-14.689,2.737-8.866,5.324-17.239,5.324-23.92,0-11.427-7.025-19.105-17.48-19.105-13.286,0-23.7,13.495-23.7,30.722A45.683,45.683,0,0,0,77.98,89.361c-1.674,7.092-11.621,49.253-13.508,57.2-1.091,4.641-7.663,41.3,3.215,44.221,12.223,3.284,23.148-32.417,24.26-36.451.9-3.281,4.055-15.687,5.987-23.313,5.9,5.683,15.4,9.526,24.645,9.526,17.427,0,33.1-7.842,44.13-22.08,10.7-13.81,16.591-33.058,16.591-54.2A62.5,62.5,0,0,0,163.83,19.572Z" transform="translate(-33.181)" fill="#1a202a"/></g></g></svg>