<svg xmlns="http://www.w3.org/2000/svg" width="95.502" height="79.467" viewBox="0 0 95.502 79.467"><path data-name="001-twitter" d="M93.857,43.664a38.437,38.437,0,0,1-6.587,2.211,20.737,20.737,0,0,0,5.423-8.636h0a1.078,1.078,0,0,0-1.583-1.257h0a38.419,38.419,0,0,1-10.056,4.167,2.889,2.889,0,0,1-.628.07,2.624,2.624,0,0,1-1.769-.675A20.636,20.636,0,0,0,65.04,34.4a22.5,22.5,0,0,0-6.517,1A19.888,19.888,0,0,0,45.092,49.763a22.072,22.072,0,0,0-.489,7.588.753.753,0,0,1-.186.582.744.744,0,0,1-.559.256h-.07A53.994,53.994,0,0,1,6.685,38.38h0a1.08,1.08,0,0,0-1.769.14h0A20.583,20.583,0,0,0,8.268,63.542a19.277,19.277,0,0,1-4.7-1.816h0a1.084,1.084,0,0,0-1.606.931h0A20.647,20.647,0,0,0,13.971,81.652h-.442a19.232,19.232,0,0,1-3.468-.326h0a1.089,1.089,0,0,0-1.234,1.4h0A20.608,20.608,0,0,0,25.121,96.758a37.964,37.964,0,0,1-21.275,6.471H1.471a1.573,1.573,0,0,0-1.536,1.187,1.61,1.61,0,0,0,.791,1.792,56.539,56.539,0,0,0,28.4,7.658,57.152,57.152,0,0,0,24.254-5.144,53.8,53.8,0,0,0,17.76-13.291,58.324,58.324,0,0,0,10.87-18.2A57.353,57.353,0,0,0,85.71,57.3V57a3.561,3.561,0,0,1,1.3-2.723,40.687,40.687,0,0,0,8.193-8.985h0a1.1,1.1,0,0,0-1.35-1.629Z" transform="translate(0.115 -34.4)" fill="#1a202a"/></svg>