<svg xmlns="http://www.w3.org/2000/svg" width="79.498" height="96.123" viewBox="0 0 79.498 96.123"><g data-name="002-youtube-logo" transform="translate(-44.244)"><g data-name="Group 2581" transform="translate(44.245)"><path data-name="Path 5542" d="M122.347,225.889a10.072,10.072,0,0,0-8.583-7.831q-9.869-1.073-29.77-1.072t-29.717,1.072a9.734,9.734,0,0,0-5.525,2.521,10.188,10.188,0,0,0-3.112,5.31q-1.394,6.223-1.395,18.775,0,12.766,1.395,18.775a9.807,9.807,0,0,0,3.085,5.31,9.508,9.508,0,0,0,5.5,2.468q9.871,1.126,29.771,1.126t29.77-1.126a9.386,9.386,0,0,0,5.472-2.468,10.179,10.179,0,0,0,3.111-5.31q1.394-6.223,1.4-18.775Q123.742,231.9,122.347,225.889Zm-55.41,5.419H61.2v30.521H55.834V231.308H50.2v-5.042H66.937v5.042Zm14.482,30.521H76.645v-2.9q-2.9,3.273-5.472,3.273a2.889,2.889,0,0,1-3.111-1.985,13.276,13.276,0,0,1-.429-3.916V235.33h4.774v19.525a14.813,14.813,0,0,0,.054,1.877q.161,1.126,1.127,1.126,1.448,0,3.058-2.253V235.33h4.774v26.5Zm18.238-7.939a19.817,19.817,0,0,1-.481,5.365,3.715,3.715,0,0,1-3.809,2.949q-2.575,0-4.989-2.949v2.574H85.6V226.266h4.773v11.64q2.308-2.9,4.989-2.9a3.727,3.727,0,0,1,3.809,3,19.163,19.163,0,0,1,.481,5.31Zm18.13-4.4h-9.6v4.667q0,3.7,2.467,3.7a2.052,2.052,0,0,0,2.146-1.931,26.738,26.738,0,0,0,.107-3.271h4.881v.7a23.753,23.753,0,0,1-.107,3.112,6.64,6.64,0,0,1-6.921,5.739,6.888,6.888,0,0,1-5.793-2.735q-1.555-1.985-1.555-6.222v-9.28q0-4.237,1.5-6.222a7.335,7.335,0,0,1,11.427,0q1.45,1.985,1.449,6.222v5.526Z" transform="translate(-44.245 -176.219)" fill="#1a202a"/><path data-name="Path 5543" d="M292.2,336.043a3.447,3.447,0,0,0-2.414,1.18v16.145a3.442,3.442,0,0,0,2.414,1.18q2.091,0,2.093-3.594V339.637Q294.293,336.042,292.2,336.043Z" transform="translate(-243.655 -272.908)" fill="#1a202a"/><path data-name="Path 5544" d="M386.995,336.043q-2.414,0-2.414,3.647v2.468h4.827V339.69Q389.408,336.042,386.995,336.043Z" transform="translate(-320.64 -272.908)" fill="#1a202a"/><path data-name="Path 5545" d="M119.256,21.4V35.939h5.364V21.4L131.109,0h-5.471l-3.647,14.107L118.183,0H112.5q1.5,4.506,3.487,10.031A90.922,90.922,0,0,1,119.256,21.4Z" transform="translate(-99.674)" fill="#1a202a"/><path data-name="Path 5546" d="M218.982,74.572a6.6,6.6,0,0,0,5.686-2.736q1.5-1.985,1.5-6.329V56.12q0-4.291-1.5-6.276a7.221,7.221,0,0,0-11.318,0q-1.5,1.985-1.5,6.276v9.387q0,4.291,1.5,6.329A6.633,6.633,0,0,0,218.982,74.572Zm-2.307-19.418q0-3.7,2.307-3.7t2.306,3.7V66.418q0,3.756-2.306,3.755t-2.307-3.755Z" transform="translate(-180.359 -38.257)" fill="#1a202a"/><path data-name="Path 5547" d="M312.792,75.964q2.684,0,5.526-3.326v2.95H323.2V48.822h-4.881V69.259q-1.61,2.307-3.058,2.306-.966,0-1.127-1.18a14,14,0,0,1-.054-1.878V48.822H309.2V69.957a13.785,13.785,0,0,0,.429,4.023A2.982,2.982,0,0,0,312.792,75.964Z" transform="translate(-259.419 -39.649)" fill="#1a202a"/></g></g></svg>