<svg xmlns="http://www.w3.org/2000/svg" width="68.707" height="84.713" viewBox="0 0 68.707 84.713"><g transform="translate(-48.369)"><path data-name="Path 5568" d="M148.445,336.421c-1.569,0-3.264.934-5.04,2.776l-10.651,11.056a6.714,6.714,0,0,0,2.4,11.525l7.221,2.991a8.681,8.681,0,0,0,3.32.7h0c3.766,0,6.451-2.941,6.53-7.152l.286-15.35c.047-2.536-.483-4.387-1.576-5.5A3.426,3.426,0,0,0,148.445,336.421Z" transform="translate(-68.471 -280.758)" fill="#1a202a"/><path data-name="Path 5569" d="M142.57,0a9.353,9.353,0,0,0-2.195.27l-10.3,2.49a7.68,7.68,0,0,0-5.5,4.344,7.682,7.682,0,0,0,.667,6.98l15.031,25.874c1.506,2.593,3.039,3.918,4.554,3.941h.037a2.477,2.477,0,0,0,.509-.053c1.759-.368,2.743-2.329,2.925-5.828L149.85,8.133a7.93,7.93,0,0,0-2.008-5.965A7.161,7.161,0,0,0,142.57,0Z" transform="translate(-63.134)" fill="#1a202a"/><path data-name="Path 5570" d="M308.452,325.1l-14.509-5.015a10.872,10.872,0,0,0-3.485-.672,3.934,3.934,0,0,0-3.667,1.782c-.921,1.534-.663,3.743.748,6.389l7.224,13.547c1.4,2.629,3.634,4.137,6.124,4.137h0a7.429,7.429,0,0,0,5.579-2.863l5.077-5.944a6.714,6.714,0,0,0-3.091-11.36Z" transform="translate(-198.522 -266.567)" fill="#1a202a"/><path data-name="Path 5571" d="M319.062,158.9l-4.085-6.665a7.162,7.162,0,0,0-6-3.774,7.288,7.288,0,0,0-5.758,3.2l-9.252,12.25c-1.088,1.44-2.747,4.192-1.629,6.436.407.817,1.537,2.186,4.531,2.187h0a12.977,12.977,0,0,0,2.249-.215l15.117-2.685a6.712,6.712,0,0,0,4.829-10.736Z" transform="translate(-203.291 -123.898)" fill="#1a202a"/><path data-name="Path 5572" d="M77.4,234.248c.155-1.967-1.395-3.846-4.364-5.289l-13.806-6.712a8.443,8.443,0,0,0-3.7-.914c-3.581,0-6.2,2.717-6.519,6.761l-.613,7.792a7.526,7.526,0,0,0,1.755,5.8,6.4,6.4,0,0,0,4.784,1.99,9.084,9.084,0,0,0,2.637-.413l14.687-4.471C75.421,237.827,77.245,236.215,77.4,234.248Z" transform="translate(0 -184.711)" fill="#1a202a"/></g></svg>