<svg xmlns="http://www.w3.org/2000/svg" width="87.791" height="87.795" viewBox="0 0 87.791 87.795"><g data-name="009-instagram" transform="translate(-0.006)"><g data-name="Group 2583" transform="translate(0.005)"><g data-name="Group 2582"><path data-name="Path 5548" d="M65.85,0h-43.9A22.014,22.014,0,0,0,0,21.948v43.9A22.016,22.016,0,0,0,21.953,87.795h43.9A22.016,22.016,0,0,0,87.8,65.847v-43.9A22.014,22.014,0,0,0,65.85,0ZM80.481,65.847A14.648,14.648,0,0,1,65.85,80.478h-43.9A14.65,14.65,0,0,1,7.321,65.847v-43.9A14.649,14.649,0,0,1,21.953,7.316h43.9A14.647,14.647,0,0,1,80.481,21.948v43.9Z" transform="translate(-0.005)" fill="#1a202a"/></g></g><g data-name="Group 2585" transform="translate(62.195 14.632)"><g data-name="Group 2584"><circle data-name="Ellipse 296" cx="5.487" cy="5.487" r="5.487" fill="#1a202a"/></g></g><g data-name="Group 2587" transform="translate(21.953 21.948)"><g data-name="Group 2586"><path data-name="Path 5549" d="M124.353,102.4A21.949,21.949,0,1,0,146.3,124.348,21.946,21.946,0,0,0,124.353,102.4Zm0,36.582a14.633,14.633,0,1,1,14.632-14.634A14.633,14.633,0,0,1,124.353,138.982Z" transform="translate(-102.405 -102.4)" fill="#1a202a"/></g></g></g></svg>