<svg xmlns="http://www.w3.org/2000/svg" width="99.86" height="76.219" viewBox="0 0 99.86 76.219"><path data-name="Path 5571" d="M199.852,175.577c-13.71,0-25.391,6.3-31.945,15.927-.546.8-1.473,2.516-2.718,2.526-6,.046-6.37-7.348-6.561-13.938a1.851,1.851,0,0,0-1.832-1.767l-17.37-.1a1.844,1.844,0,0,0-1.844,1.873c.383,16.11,3.348,27.048,22.863,31.4a2.348,2.348,0,0,1,1.816,2.3V249.97a1.826,1.826,0,0,0,1.836,1.825h16.871a1.837,1.837,0,0,0,1.837-1.837V212.6c0-8.3,5.887-17.72,17.048-17.72,10.629,0,17.048,9.42,17.048,17.72v37.356a1.836,1.836,0,0,0,1.836,1.837h16.871a1.837,1.837,0,0,0,1.837-1.837V209.831C237.443,190.643,221.066,175.577,199.852,175.577Z" transform="translate(-137.582 -175.576)" fill="#1a202a"/></svg>