<svg xmlns="http://www.w3.org/2000/svg" width="102.009" height="75.14" viewBox="0 0 102.009 75.14"><g data-name="Group 2371" transform="translate(-232.991 -870.537)"><path data-name="Path 2383" d="M2204.446-1319.08H2151.51c-8.562,0-18.025,6.937-21.136,15.5l-16.08,44.151c-3.11,8.552,1.3,15.491,9.863,15.491H2177.1c8.551,0,18.013-6.938,21.135-15.491l16.069-44.151C2217.423-1312.143,2213.007-1319.08,2204.446-1319.08Z" transform="translate(-1880.307 2189.618)" fill="#1a202a"/><path data-name="Path 3377" d="M1985.755,502.622h-52.943c-8.558,0-18.02,6.937-21.135,15.5l-16.069,44.149c-3.115,8.558,1.3,15.5,9.855,15.5h23.3l.2-.056c.336-.1,8.613-3.379,11.692-11.465l.212-.554h0l8-21.93c2.431-6.522-3.482-9.166-4.074-9.459l-5.1-2.534h25.066l-12.392,33.923h.033l-.191.554c-2.807,8.086,3.08,11.368,3.346,11.465l.156.056h2.7c8.558,0,18.02-6.937,21.135-15.5l16.069-44.149C1998.725,509.559,1994.313,502.622,1985.755,502.622Zm-15.209,13.351-2.2,6.056a3.362,3.362,0,0,1-2.9,2.125h-7.262a1.438,1.438,0,0,1-1.352-2.125l2.2-6.056a3.362,3.362,0,0,1,2.9-2.125h7.262A1.438,1.438,0,0,1,1970.546,515.973Z" transform="translate(-1661.609 367.915)" fill="#fff"/></g></svg>